<svg width="60" height="60" viewBox="0 0 60 60" fill="none" xmlns="http://www.w3.org/2000/svg">
<circle cx="30" cy="30" r="30" fill="#95E3FC"/>
<rect x="12.75" y="44.0003" width="14.0001" height="6.00006" transform="rotate(-90 12.75 44.0003)" fill="white"/>
<rect x="39.7502" y="44.0003" width="32.0003" height="6.00006" transform="rotate(-90 39.7502 44.0003)" fill="white"/>
<rect x="21.7499" y="44.0003" width="20.0002" height="6.00006" transform="rotate(-90 21.7499 44.0003)" fill="white"/>
<rect x="30.7502" y="44.0003" width="26.0003" height="6.00006" transform="rotate(-90 30.7502 44.0003)" fill="white"/>
<rect x="12.75" y="44.0003" width="9.5001" height="6.00006" transform="rotate(-90 12.75 44.0003)" fill="white"/>
<rect x="39.7502" y="44.0003" width="21.0002" height="6.00006" transform="rotate(-90 39.7502 44.0003)" fill="white"/>
<rect x="21.7499" y="44.0003" width="13.0001" height="6.00006" transform="rotate(-90 21.7499 44.0003)" fill="white"/>
<rect x="30.7502" y="44.0003" width="17.5002" height="6.00006" transform="rotate(-90 30.7502 44.0003)" fill="white"/>
</svg>
