<svg width="24" height="25" viewBox="0 0 24 25" fill="none" xmlns="http://www.w3.org/2000/svg">
<path fill-rule="evenodd" clip-rule="evenodd" d="M17.3919 5.50392L12.0199 11.1412L6.64796 5.50392C6.26959 5.10978 5.66418 5.10978 5.32364 5.50392C4.94526 5.89807 4.94526 6.5287 5.32364 6.88343L10.6956 12.5207L5.28378 18.1165C4.90541 18.5107 4.90541 19.1413 5.28378 19.496C5.66216 19.8902 6.26757 19.8902 6.60811 19.496L12.0199 13.9002L17.3919 19.496C17.7703 19.8902 18.3757 19.8902 18.7162 19.496C19.0573 19.1019 19.0946 18.4718 18.7162 18.1165L13.3443 12.5207L18.7162 6.92494C19.0946 6.5308 19.0946 5.90017 18.7162 5.54544C18.3777 5.15129 17.7703 5.15129 17.3919 5.50392V5.50392Z" fill="black"/>
</svg>
